# xmcd
#
# Track frame offsets:
#	150
#	12182
#	25543
#	36388
#	48915
#	73593
#	87322
#	96700
#	107541
#	119312
#	131403
#	142322
#	161069
#	173782
#	186103
#	200757
#	213259
#	225004
#	237512
#	251672
#
# Disc length: 3506 seconds
#
# Revision: 0
# Processed by: cddbd v1.5.1PL2 Copyright (c) Steve Scherf et al.
# Submitted via: audiograbber 1.83.01
#
DISCID=180db014
DTITLE=Sammy Davis Jr - Here's Sammy Davis Jr
DYEAR=1900
DGENRE=
TTITLE0=Please Don't Talk About Me When I'm Gone
TTITLE1=Love Me Or Leave Me
TTITLE2=I Ain't Got Nobody
TTITLE3=Hey There
TTITLE4=Because Of You
TTITLE5=I'll Know
TTITLE6=Something's Gotta Give
TTITLE7=Azure
TTITLE8=That Old Black Magic
TTITLE9=All Of You
TTITLE10=Easy To Love
TTITLE11=Stan' Up And Fight
TTITLE12=Adelaida
TTITLE13=I Don't Care Who Knows
TTITLE14=The Way You Look Tonight
TTITLE15=I'm Sorry Dear
TTITLE16=You Are My Lucky Star
TTITLE17=Can't You See I Have The Blues
TTITLE18=Dedicated To You
TTITLE19=Yours Is My Heart Alone
EXTD=
EXTT0=
EXTT1=
EXTT2=
EXTT3=
EXTT4=
EXTT5=
EXTT6=
EXTT7=
EXTT8=
EXTT9=
EXTT10=
EXTT11=
EXTT12=
EXTT13=
EXTT14=
EXTT15=
EXTT16=
EXTT17=
EXTT18=
EXTT19=
PLAYORDER=
